# xmcd
#
# Track frame offsets: 
#        150
#        17050
#        35915
#        55617
#        72035
#        89480
#        106645
#        121655
#        138670
#        155092
#        163355
#        179870
#        199205
#        213085
#        226230
#        239660
#        257845
#        275810
#        299420
#        315615
#
# Disc length: 4400 seconds
#
# Revision: 0
# Processed by: cddbd v1.5.2PL0 Copyright (c) Steve Scherf et al.
# Submitted via: ExactAudioCopy v0.95b3
#
DISCID=34112e14
DTITLE=Patricia Kaas - Greatest Hits
DYEAR=1900
DGENRE=Chanson
TTITLE0=Mademoiselle Chante Le Blues
TTITLE1=Mon mec a moi
TTITLE2=D'Allemagne
TTITLE3=Quand Jimmi Dit
TTITLE4=Venus des abribus
TTITLE5=Les mannequins d'osier
TTITLE6=Jojo
TTITLE7=Les hommes qui passent
TTITLE8=Kennedy Rose
TTITLE9=Un dernier blues
TTITLE10=Regarde les riches
TTITLE11=Des mensones en musique
TTITLE12=L'enterrement de Sidney Bechet
TTITLE13=Souvenirs de l'est
TTITLE14=Une derniere semaine a New York
TTITLE15=Elle voulait jouer cabaret
TTITLE16=La liberte
TTITLE17=Ceux qui n'ont rien
TTITLE18=Coeurs brises
TTITLE19=Je sais
EXTD=
EXTT0=
EXTT1=
EXTT2=
EXTT3=
EXTT4=
EXTT5=
EXTT6=
EXTT7=
EXTT8=
EXTT9=
EXTT10=
EXTT11=
EXTT12=
EXTT13=
EXTT14=
EXTT15=
EXTT16=
EXTT17=
EXTT18=
EXTT19=
PLAYORDER=
